<svg xmlns="http://www.w3.org/2000/svg" width="24" height="28" viewBox="0 0 24 28">
    <g fill="#FFF">
        <path d="M23.287 23.617l-2.004-3.34c-.925-1.54-1.414-3.306-1.414-5.102V12.25c0-3.693-2.464-6.816-5.833-7.822V2.333C14.036 1.046 12.99 0 11.703 0c-1.287 0-2.334 1.046-2.334 2.333v2.095C6 5.434 3.536 8.558 3.536 12.25v2.925c0 1.796-.489 3.56-1.413 5.102L.12 23.616c-.108.18-.11.405-.007.588.104.183.296.296.506.296h22.167c.21 0 .404-.113.508-.295.103-.182.1-.408-.007-.588zM8.029 25.667C8.687 27.04 10.079 28 11.703 28c1.623 0 3.016-.959 3.674-2.333H8.029z"/>
    </g>
</svg>
