<svg xmlns="http://www.w3.org/2000/svg" width="20" height="20" viewBox="0 0 20 20">
    <g fill="#404A92">
        <path d="M2.857 15.357L4.286 15.357 4.286 16.429 2.857 16.429zM16.071 12.143c-2.17 0-3.928 1.759-3.928 3.928 0 2.17 1.759 3.929 3.928 3.929C18.241 20 20 18.241 20 16.071c-.003-2.168-1.76-3.926-3.929-3.928zm2.569 2.936l-3.03 3.03c-.14.14-.366.14-.505 0l-1.515-1.515c-.136-.14-.134-.363.004-.5.138-.138.36-.14.5-.005l1.263 1.263 2.778-2.778c.14-.135.363-.133.5.005.138.137.14.36.005.5zM7.143 8.929L8.572 8.929 8.572 10 7.143 10zM11.429 8.929L12.857 8.929 12.857 10 11.429 10zM2.857 12.143L4.286 12.143 4.286 13.214 2.857 13.214zM7.143 12.143L8.572 12.143 8.572 13.214 7.143 13.214zM2.857 8.929L4.286 8.929 4.286 10 2.857 10zM4.286 3.571c.394 0 .713-.32.714-.714V.714C5 .32 4.68 0 4.286 0 3.89 0 3.57.32 3.57.714v2.143c.002.394.32.713.715.714zM10 3.571c.394 0 .713-.32.714-.714V.714C10.714.32 10.394 0 10 0c-.394 0-.714.32-.714.714v2.143c0 .394.32.713.714.714zM15.714 3.571c.394 0 .713-.32.715-.714V.714c0-.394-.32-.714-.715-.714C15.32 0 15 .32 15 .714v2.143c.001.394.32.713.714.714zM15.714 8.929L17.143 8.929 17.143 10 15.714 10z"/>
        <path d="M18.929 2.143h-1.786v.714c0 .79-.64 1.429-1.429 1.429s-1.428-.64-1.428-1.429v-.714h-2.857v.714c0 .79-.64 1.429-1.429 1.429s-1.429-.64-1.429-1.429v-.714H5.714v.714c0 .79-.64 1.429-1.428 1.429-.79 0-1.429-.64-1.429-1.429v-.714H1.071c-.59.002-1.07.48-1.071 1.071v2.5h20v-2.5c-.002-.59-.48-1.07-1.071-1.071zM7.143 15.357L8.572 15.357 8.572 16.429 7.143 16.429z"/>
        <path d="M0 6.429V17.5c.002.591.48 1.07 1.071 1.071h11.094c-.886-1.4-.96-3.165-.19-4.633.768-1.468 2.261-2.414 3.917-2.482 1.655-.069 3.221.752 4.108 2.151V6.43H0zm5 10c0 .394-.32.714-.714.714H2.857c-.394 0-.714-.32-.714-.714v-1.072c0-.394.32-.714.714-.714h1.429c.394 0 .714.32.714.714v1.072zm0-3.215c0 .395-.32.715-.714.715H2.857c-.394 0-.714-.32-.714-.715v-1.071c0-.395.32-.714.714-.714h1.429c.394 0 .714.32.714.714v1.071zM5 10c0 .394-.32.714-.714.714H2.857c-.394 0-.714-.32-.714-.714V8.929c0-.395.32-.715.714-.715h1.429c.394 0 .714.32.714.715V10zm4.286 6.429c0 .394-.32.714-.715.714H7.143c-.395 0-.714-.32-.714-.714v-1.072c0-.394.32-.714.714-.714H8.57c.395 0 .715.32.715.714v1.072zm0-3.215c0 .395-.32.715-.715.715H7.143c-.395 0-.714-.32-.714-.715v-1.071c0-.395.32-.714.714-.714H8.57c.395 0 .715.32.715.714v1.071zm0-3.214c0 .394-.32.714-.715.714H7.143c-.395 0-.714-.32-.714-.714V8.929c0-.395.32-.715.714-.715H8.57c.395 0 .715.32.715.715V10zm3.571 2.143H11.43v1.071c.197 0 .357.16.357.357 0 .198-.16.358-.357.358-.395 0-.715-.32-.715-.715v-1.071c0-.395.32-.714.715-.714h1.428c.197 0 .357.16.357.357 0 .197-.16.357-.357.357zM13.571 10c0 .394-.32.714-.714.714H11.43c-.395 0-.715-.32-.715-.714V8.929c0-.395.32-.715.715-.715h1.428c.395 0 .714.32.714.715V10zm4.286 0c0 .394-.32.714-.714.714h-1.429c-.394 0-.714-.32-.714-.714V8.929c0-.395.32-.715.714-.715h1.429c.394 0 .714.32.714.715V10z"/>
    </g>
</svg>
