<svg xmlns="http://www.w3.org/2000/svg" width="25" height="25" viewBox="0 0 25 25">
    <g fill="none" fill-rule="evenodd">
        <g fill-rule="nonzero">
            <path fill="#FF826E" d="M10.08 20.161H0v-4.528c0-1.125.778-2.105 1.875-2.355l1.907-.44c-.097.134-.153.291-.153.468 0 .444.363.807.806.807.15 0 .29-.04.412-.113h.004c-.008.036-.012.077-.012.113 0 .443.363.806.806.806.444 0 .807-.363.807-.806 0 .443.363.806.806.806.444 0 .807-.363.807-.806 0-.04-.005-.077-.013-.117.121.073.263.117.416.117.443 0 .806-.363.806-.807 0-.173-.056-.338-.149-.467l1.903.44c1.097.25 1.875 1.23 1.875 2.354v1.35c-.955.336-1.613 1.247-1.613 2.28v.898h-1.21z" transform="translate(.403 .403)"/>
            <path fill="#FCD770" d="M7.661 2.42c0 .149-.032.29-.08.419-.105-.012-.214-.016-.323-.016H5.645c-.109 0-.218.004-.322.016-.049-.13-.081-.27-.081-.42 0-.322.125-.613.33-.826.218-.238.533-.383.88-.383.669 0 1.21.54 1.21 1.21z" transform="translate(.403 .403)"/>
            <path fill="#656D78" d="M1.21 9.677C.1 7.278 0 3.867 0 3.226v-.299C0 2.121.327 1.387.859.86 1.387.327 2.12 0 2.927 0c.948 0 1.835.456 2.383 1.226l.263.367c-.206.213-.331.504-.331.826 0 .15.032.29.08.42-.87.076-1.66.463-2.241 1.048-.658.653-1.065 1.565-1.065 2.565 0 .33.08.64.218.919-.137.198-.218.435-.218.694 0 .334.137.637.355.854.218.218.52.355.855.355h.435c.04.31.137.605.274.875l-.314.549c-.246.431-.6.782-1.016 1.024-.42.242-.895.375-1.395.375-.335 0-.637-.137-.855-.355-.218-.218-.355-.52-.355-.855 0-.335.137-.637.355-.855.218-.217.52-.355.855-.355z" transform="translate(.403 .403)"/>
            <path fill="#656D78" d="M10.887 6.452c0 .33-.08.64-.222.915-.04-.057-.084-.109-.133-.157-.217-.218-.52-.355-.855-.355h-.54c-1.464 0-2.863-.58-3.895-1.613-.802.202-1.4.843-1.565 1.625l-.048-.012h-.403c-.411 0-.774.205-.992.516-.137-.278-.218-.589-.218-.92 0-1 .407-1.91 1.065-2.564.58-.585 1.37-.972 2.242-1.048.104-.012.213-.016.322-.016h1.613c.109 0 .218.004.323.016 1.854.161 3.306 1.717 3.306 3.613z" transform="translate(.403 .403)"/>
            <path fill="#F0D0B4" d="M7.661 11.42v1.08c0 .31-.117.593-.314.806-.008.017-.024.033-.04.049-.194.193-.452.322-.742.347-.037.008-.077.008-.113.008-.36 0-.682-.154-.896-.404-.197-.213-.314-.496-.314-.806v-1.08c.367.177.774.274 1.21.274.435 0 .842-.097 1.21-.275zM10.665 7.367c.137.198.222.435.222.698 0 .669-.54 1.21-1.21 1.21h-.435c.024-.13.032-.267.032-.404V6.855h.403c.335 0 .638.137.855.355.049.048.093.1.133.157z" transform="translate(.403 .403)"/>
            <path fill="#F0D0B4" d="M7.661 11.42c-.367.177-.774.274-1.21.274-.435 0-.842-.097-1.21-.275-.293-.137-.56-.326-.785-.552-.21-.21-.387-.452-.52-.718-.138-.27-.234-.564-.275-.875-.024-.129-.032-.266-.032-.403V7.306c0-.149.016-.298.048-.44.166-.781.763-1.422 1.565-1.624 1.032 1.032 2.431 1.613 3.895 1.613h.137V8.87c0 .137-.008.274-.032.403-.133.952-.742 1.75-1.58 2.145z" transform="translate(.403 .403)"/>
            <path fill="#F0D0B4" d="M2.234 7.371c.218-.31.58-.516.992-.516h.403l.048.012c-.032.141-.048.29-.048.44V8.87c0 .137.008.274.032.403h-.435c-.335 0-.637-.137-.855-.355-.218-.217-.355-.52-.355-.854 0-.259.08-.496.218-.694z" transform="translate(.403 .403)"/>
            <path fill="#FFC729" d="M9.125 12.839c.093.129.15.294.15.467 0 .444-.364.807-.807.807-.153 0-.295-.044-.416-.117-.048-.359-.338-.641-.701-.686l-.004-.004c.197-.213.314-.496.314-.806l1.464.339z" transform="translate(.403 .403)"/>
            <path fill="#FFC729" d="M8.052 13.996c.008.04.013.077.013.117 0 .443-.363.806-.807.806-.443 0-.806-.363-.806-.806 0-.15.04-.29.113-.407v-.004c.29-.025.548-.154.741-.347.017-.016.033-.032.04-.049l.005.004c.363.045.653.327.701.686z" transform="translate(.403 .403)"/>
            <path fill="#FFC729" d="M6.565 13.702v.004c-.073.117-.113.258-.113.407 0 .443-.363.806-.807.806-.443 0-.806-.363-.806-.806 0-.036.004-.077.012-.113.044-.363.334-.645.701-.69l.004-.004c.214.25.537.404.896.404.036 0 .076 0 .113-.008z" transform="translate(.403 .403)"/>
            <path fill="#FFC729" d="M5.556 13.306l-.004.004c-.367.045-.657.327-.701.69h-.004c-.121.073-.262.113-.412.113-.443 0-.806-.363-.806-.807 0-.177.056-.334.153-.467l1.46-.339c0 .31.117.593.314.806z" transform="translate(.403 .403)"/>
            <path fill="#B27946" d="M22.177 9.274c0 .549-.185 1.234-.302 1.617l-.004.004c-.012-.02-.032-.04-.048-.056-.218-.218-.52-.355-.855-.355H20.004c-.456 0-.895-.113-1.282-.323-.391-.21-.73-.508-.98-.887-.504.754-1.35 1.21-2.262 1.21H14.516c-.355 0-.673.153-.891.395l-.258-.968c-.04-.157-.06-.314-.06-.476 0-.41.128-.798.354-1.12.226-.323.549-.577.936-.718l2.653-.964c.327-.12.67-.181 1.016-.181.468 0 .928.113 1.335.314.407.206.77.504 1.052.88l.315.419c.334 0 .637.137.855.354.217.218.354.52.354.855z" transform="translate(.403 .403)"/>
            <path fill="#F0D0B4" d="M21.871 10.895c.19.214.306.492.306.799 0 .669-.54 1.21-1.21 1.21h-.435c.024-.13.033-.267.033-.404v-2.016h.403c.334 0 .637.137.855.355.016.016.036.036.048.056z" transform="translate(.403 .403)"/>
            <path fill="#F0D0B4" d="M20.565 10.484V12.5c0 .137-.009.274-.033.403-.133.952-.742 1.75-1.58 2.145-.367.178-.775.275-1.21.275-.436 0-.843-.097-1.21-.275-.294-.137-.56-.326-.786-.552-.423-.423-.71-.972-.794-1.593-.025-.129-.033-.266-.033-.403v-2.016h.56c.912 0 1.759-.456 2.263-1.21.25.38.589.678.98.887.387.21.826.323 1.282.323h.56z" transform="translate(.403 .403)"/>
            <path fill="#F0D0B4" d="M19.319 16.165l-1.577 1.577-1.577-1.577c.222-.145.367-.399.367-.677v-.44c.367.178.774.275 1.21.275.435 0 .843-.097 1.21-.275v.44c0 .278.145.532.367.677z" transform="translate(.403 .403)"/>
            <path fill="#B4DD7F" d="M22.319 16.907l-2.742-.633c-.093-.02-.182-.06-.258-.109l-1.577 1.577-1.577-1.577c-.076.049-.165.089-.258.11l-2.742.632c-.088.02-.177.045-.262.077-.955.335-1.613 1.246-1.613 2.278v4.932h12.904v-4.932c0-1.125-.779-2.105-1.875-2.355z" transform="translate(.403 .403)"/>
            <path fill="#F0D0B4" d="M14.952 12.903h-.436c-.335 0-.637-.137-.855-.355-.217-.217-.355-.52-.355-.854 0-.315.121-.601.319-.815.218-.242.536-.395.891-.395h.403V12.5c0 .137.008.274.033.403z" transform="translate(.403 .403)"/>
        </g>
        <path fill="#000" fill-rule="nonzero" d="M22.812 16.916l-2.742-.633c-.184-.042-.312-.203-.312-.392v-.199c.737-.427 1.288-1.138 1.507-1.983h.106c.89 0 1.613-.723 1.613-1.613 0-.325-.099-.627-.265-.88.131-.457.265-1.037.265-1.539 0-.817-.611-1.495-1.4-1.599l-.206-.272c-.636-.848-1.648-1.354-2.707-1.354-.396 0-.785.068-1.157.203l-2.653.965c-.93.338-1.555 1.23-1.555 2.22 0 .192.024.385.073.58l.207.772c-.176.258-.28.57-.28.905 0 .89.724 1.613 1.613 1.613h.106c.219.844.77 1.555 1.507 1.983v.198c0 .19-.128.35-.312.393l-2.51.579v-.825c0-1.322-.9-2.453-2.188-2.75l-3.054-.705v-.52c.737-.427 1.288-1.138 1.507-1.982h.106c.89 0 1.613-.724 1.613-1.613 0-.258-.067-.499-.175-.715.114-.284.175-.59.175-.898 0-1.95-1.392-3.58-3.234-3.952.002-.027.008-.054.008-.08 0-.89-.724-1.613-1.613-1.613-.289 0-.556.082-.79.215l-.022-.03C5.419.521 4.405 0 3.332 0 1.495 0 0 1.495 0 3.332v.297c0 .151.014 3.535 1.05 6.156C.438 10.015 0 10.6 0 11.29c0 .89.723 1.613 1.613 1.613 1.131 0 2.182-.607 2.75-1.583.245.298.543.549.879.744v.519l-3.054.704C.9 13.585 0 14.715 0 16.038v4.93h11.29V25H25v-5.333c0-1.323-.9-2.454-2.188-2.75zm-1.441-4.013V11.29c.445 0 .806.362.806.807 0 .445-.361.806-.806.806zm-6.234-4.525l2.653-.965c.283-.103.58-.155.88-.155.808 0 1.58.386 2.063 1.032l.436.581h.202c.445 0 .806.362.806.806 0 .297-.063.648-.137.956-.205-.093-.43-.15-.669-.15h-.966c-.775 0-1.495-.384-1.924-1.03l-.336-.503-.335.504c-.43.645-1.15 1.03-1.925 1.03H14.92c-.232 0-.45.051-.65.14l-.11-.407c-.03-.123-.046-.25-.046-.377 0-.652.412-1.24 1.024-1.462zm-1.024 3.719c0-.445.362-.807.806-.807v1.613c-.444 0-.806-.361-.806-.806zm1.613.806V11.29h.16c.863 0 1.676-.355 2.26-.969.583.614 1.396.97 2.26.97h.159v1.612c0 1.335-1.086 2.42-2.42 2.42-1.334 0-2.42-1.085-2.42-2.42zm2.42 3.226c.282 0 .555-.04.816-.109.021.199.09.383.196.542l-1.013 1.013-1.013-1.013c.107-.16.175-.343.196-.542.262.069.535.109.817.109zm-8.89-2.537c.011.038.018.077.018.118 0 .247-.239.436-.478.39-.087-.236-.246-.437-.452-.578.017-.042.026-.087.04-.13l.872.2zm-4.343.51c-.024.006-.049.01-.074.01-.222 0-.404-.18-.404-.402 0-.04.007-.08.019-.118l.871-.201c.015.043.024.089.041.13-.206.143-.366.344-.453.582zm.945.059c.175.14.377.243.6.3 0 .019-.006.037-.006.055 0 .223-.181.403-.404.403-.222 0-.403-.18-.403-.403 0-.152.085-.287.213-.355zm1.408.295c.217-.057.415-.159.586-.295.127.068.213.202.213.355 0 .223-.182.403-.404.403-.222 0-.403-.18-.403-.403 0-.02.005-.04.008-.06zm2.815-5.182V7.661c.444 0 .806.362.806.807 0 .444-.362.806-.806.806zm.806-2.42c0 .073-.005.146-.015.217-.235-.133-.502-.216-.791-.216h-.542c-1.363 0-2.645-.53-3.609-1.495L5.77 5.2l-.221.055c-.84.21-1.49.823-1.769 1.6h-.15c-.29 0-.557.083-.792.217-.01-.071-.014-.144-.014-.216 0-1.779 1.447-3.226 3.225-3.226h1.613c1.779 0 3.226 1.447 3.226 3.226zm-7.258.807h.004c0 .017-.004.033-.004.05v1.563c-.445 0-.806-.361-.806-.806 0-.445.361-.807.806-.807zm4.032-4.838H6.048c0-.445.362-.807.807-.807.445 0 .806.362.806.807zM3.676 10.9c-.422.738-1.213 1.197-2.063 1.197-.445 0-.807-.362-.807-.807 0-.444.362-.806.807-.806.445 0 .806.362.806.806h.807c0-.794-.578-1.451-1.334-1.584C.822 7.21.806 3.778.806 3.629v-.297C.806 1.94 1.94.806 3.332.806c.814 0 1.582.396 2.055 1.058l.092.13c-.148.242-.237.524-.237.829 0 .026.006.053.008.08-1.842.372-3.234 2.002-3.234 3.952 0 .309.061.614.175.898-.108.216-.175.457-.175.715 0 .89.724 1.613 1.613 1.613h.106c.04.155.088.307.15.452l-.21.367zm.76-1.626V7.711c0-.721.443-1.355 1.102-1.61 1.029.949 2.339 1.493 3.736 1.555v1.618c0 1.334-1.085 2.42-2.42 2.42-1.333 0-2.419-1.086-2.419-2.42zM6.854 12.5c.279 0 .548-.04.806-.106v.51c0 .444-.361.806-.806.806-.445 0-.807-.362-.807-.807v-.509c.259.067.528.106.807.106zm17.339 11.694H22.58v-3.226h-.807v3.226h-7.258v-3.226h-.806v3.226h-1.613v-4.527c0-.945.643-1.753 1.563-1.965l2.74-.633c.027-.006.05-.016.075-.023l1.67 1.67 1.67-1.67c.025.007.048.017.074.023l2.742.633c.92.213 1.563 1.02 1.563 1.965v4.527z"/>
        <path fill="#ACD6F2" d="M10.887 20.161v-3.226h-.806v3.226H3.629v-3.226h-.806v3.226H.806v-4.123c0-.945.643-1.753 1.563-1.965l1.267-.292c.038.633.56 1.138 1.203 1.138.024 0 .047-.008.071-.01.164.474.61.817 1.138.817.311 0 .592-.122.807-.315.214.194.495.315.806.315.529 0 .974-.343 1.139-.817.024.002.047.01.071.01.643 0 1.165-.505 1.202-1.138l1.267.292c.92.212 1.563 1.02 1.563 1.965v1.085c-.97.459-1.613 1.43-1.613 2.544v.494h-.403z"/>
        <path fill="#000" fill-rule="nonzero" d="M17.742 19.355L18.548 19.355 18.548 20.161 17.742 20.161zM17.742 20.968L18.548 20.968 18.548 21.774 17.742 21.774zM17.742 22.581L18.548 22.581 18.548 23.387 17.742 23.387z"/>
    </g>
</svg>
