<svg xmlns="http://www.w3.org/2000/svg" width="20" height="20" viewBox="0 0 20 20">
    <g fill="#404A92">
        <path d="M17.998 17.155c2.949-3.401 2.587-8.53-.74-11.507 1.709 5.988-2.81 11.97-9.035 11.97l-2.246-.014C7.535 19.154 9.611 20 11.777 20l7.64-.04c.52-.002.78-.635.408-1.002l-1.827-1.803z"/>
        <path d="M8.223 16.445c4.533 0 8.222-3.688 8.222-8.222C16.445 3.689 12.756 0 8.223 0 3.689 0 0 3.689 0 8.223c0 1.996.707 3.884 2.002 5.377L.175 15.403c-.37.366-.114 1 .409 1.003l7.639.04zM4.727 5.312h7.03c.324 0 .587.263.587.586 0 .324-.263.586-.586.586H4.727c-.324 0-.586-.262-.586-.586 0-.323.262-.585.586-.585zm0 2.344h7.03c.324 0 .587.263.587.586 0 .324-.263.586-.586.586H4.727c-.324 0-.586-.262-.586-.586 0-.323.262-.586.586-.586zm-.586 2.93c0-.324.262-.586.586-.586h7.03c.324 0 .587.262.587.586 0 .324-.263.586-.586.586H4.727c-.324 0-.586-.262-.586-.586z"/>
    </g>
</svg>
