<svg xmlns="http://www.w3.org/2000/svg" width="28" height="28" viewBox="0 0 28 28">
    <g fill="#FFF">
        <path d="M25.197 24.017c4.128-4.762 3.622-11.943-1.036-16.11 2.392 8.383-3.934 16.757-12.65 16.757-.167 0 .846.006-3.143-.019C10.55 26.817 13.455 28 16.488 28l10.695-.055c.729-.003 1.092-.89.572-1.404l-2.558-2.524z"/>
        <path d="M11.512 23.023c6.347 0 11.51-5.164 11.51-11.511C23.023 5.164 17.86 0 11.513 0 5.164 0 0 5.164 0 11.512c0 2.794.989 5.437 2.802 7.528L.245 21.565c-.519.511-.16 1.4.572 1.404l10.695.054zM6.617 7.438h9.844c.453 0 .82.367.82.82 0 .453-.367.82-.82.82H6.617c-.453 0-.82-.367-.82-.82 0-.453.367-.82.82-.82zm0 3.28h9.844c.453 0 .82.368.82.821 0 .453-.367.82-.82.82H6.617c-.453 0-.82-.367-.82-.82 0-.453.367-.82.82-.82zm-.82 4.102c0-.453.367-.82.82-.82h9.844c.453 0 .82.367.82.82 0 .453-.367.82-.82.82H6.617c-.453 0-.82-.367-.82-.82z"/>
    </g>
</svg>
