<svg xmlns="http://www.w3.org/2000/svg" width="22" height="20" viewBox="0 0 22 20">
    <g fill="#404A92">
        <path d="M18.528 0H2.953C1.325 0 0 1.34 0 2.989v9.645c0 1.645 1.32 2.983 2.943 2.989V20l6.216-4.377h9.37c1.628 0 2.952-1.34 2.952-2.989V2.99C21.481 1.34 20.157 0 18.528 0zm1.695 12.634c0 .946-.76 1.715-1.695 1.715H8.764l-4.562 3.213v-3.213H2.953c-.934 0-1.694-.77-1.694-1.715V2.99c0-.946.76-1.715 1.694-1.715h15.575c.935 0 1.695.769 1.695 1.715v9.645z"/>
        <path d="M5.926 4.444L16.296 4.444 16.296 5.926 5.926 5.926zM5.926 7.407L16.296 7.407 16.296 8.889 5.926 8.889zM5.926 10.63L16.296 10.63 16.296 12.111 5.926 12.111z"/>
    </g>
</svg>
