<svg xmlns="http://www.w3.org/2000/svg" width="19" height="20" viewBox="0 0 19 20">
    <path fill="#404A92" d="M4.949 6.879H1.673c-.883 0-1.6.719-1.6 1.603v9.856c0 .884.717 1.604 1.6 1.604h3.276c.564 0 1.06-.295 1.345-.738h9.026c.896 0 1.645-.644 1.78-1.532.104-.675.246-1.61.395-2.61.047-.307-.165-.593-.472-.64-.307-.045-.593.166-.639.474-.149.998-.29 1.932-.394 2.606-.05.335-.333.577-.67.577H6.549V8.586l4.7-4.763c.024-.025.045-.051.064-.08.17-.249.723-1.105.732-1.677v-.139c0-.379.284-.693.65-.737.331.138.783.461.833 2.037v.077c0 .035-.003.071-.008.108-.005.033-.007.066-.006.099.01.292.017 1.85-.76 3.796-.068.173-.047.37.057.524.105.155.279.247.465.247h2.601c.702 0 1.273.573 1.273 1.276 0 .09-.04.574-.408 3.112-.044.308.169.594.476.638.307.045.592-.168.636-.476.42-2.9.42-3.162.42-3.274 0-1.324-1.075-2.401-2.397-2.401h-1.8c.542-1.672.572-2.976.561-3.432.009-.073.013-.146.013-.217v-.086-.017c-.053-1.74-.568-2.698-1.67-3.108-.062-.023-.128-.035-.195-.035-1.028 0-1.864.839-1.864 1.869v.122c-.011.152-.25.628-.51 1.02l-4.28 4.338c-.293-.323-.714-.528-1.183-.528zm.476 11.46c0 .263-.213.477-.476.477H1.673c-.264 0-.477-.214-.477-.478V8.482c0-.263.213-.478.477-.478h3.276c.263 0 .476.215.476.478v9.856z"/>
</svg>
