<svg xmlns="http://www.w3.org/2000/svg" width="17" height="17" viewBox="0 0 17 17">
    <g fill="none">
        <path fill="#424C93" d="M17 8.5C17 3.806 13.194 0 8.5 0S0 3.806 0 8.5 3.806 17 8.5 17 17 13.194 17 8.5z"/>
        <path fill="#333C7E" d="M13.146.944C14.65 2.52 15.58 4.697 15.58 7.102c0 4.807-3.716 8.704-8.3 8.704-1.635 0-3.16-.497-4.446-1.353C4.335 16.027 6.41 17 8.7 17c4.584 0 8.3-3.897 8.3-8.704 0-3.092-1.537-5.807-3.854-7.352z"/>
        <path fill="#FFF" d="M12.278 7.897c0-.479-.353-.867-.79-.867h-1.117c.323-.889.346-1.617.344-1.85l.005-.137v-.04c-.023-.844-.258-1.102-.56-1.225-.31 0-.56.275-.56.616v.061c-.004.211-.273.646-.273.646L7.271 7.387l-.035.047-.625 1.838.625 2.85c0 .086.064.156.143.156h3.87c.264 0 .487-.211.527-.497.152-1.094.502-3.633.502-3.884z"/>
        <path fill="#FFF" d="M7.006 13.222H5.272c-.304 0-.55-.22-.55-.494V8.05c0-.272.246-.493.55-.493h1.734c.303 0 .55.22.55.493v4.68c0 .272-.247.493-.55.493z"/>
        <path fill="#424C93" d="M7.006 11.66H5.272c-.304 0-.55-.146-.55-.327v.617c0 .181.246.328.55.328h1.734c.303 0 .55-.147.55-.328v-.617c0 .181-.247.328-.55.328z"/>
        <path fill="#FFF" d="M11.391 7.556h-.163c-.008.068-.02.158-.036.265-.298 2.026-2.259 3.544-4.58 3.544v.772c0 .078.07.14.159.14h4.35c.297 0 .548-.19.593-.447.171-.984.564-3.268.564-3.494 0-.431-.397-.78-.887-.78z"/>
    </g>
</svg>
