<svg xmlns="http://www.w3.org/2000/svg" xmlns:xlink="http://www.w3.org/1999/xlink" width="100" zoomAndPan="magnify" viewBox="0 0 75 37.5" height="50" preserveAspectRatio="xMidYMid meet" version="1.0"><defs><g/><clipPath id="5e2c8c57e7"><path d="M 41 10 L 43.933594 10 L 43.933594 11 L 41 11 Z M 41 10 " clip-rule="nonzero"/></clipPath><clipPath id="f10fca2d68"><path d="M 33 3.699219 L 42 3.699219 L 42 13 L 33 13 Z M 33 3.699219 " clip-rule="nonzero"/></clipPath><clipPath id="17405ec5bb"><path d="M 26 9 L 34 9 L 34 31.824219 L 26 31.824219 Z M 26 9 " clip-rule="nonzero"/></clipPath></defs><g clip-path="url(#5e2c8c57e7)"><path fill="#ffffff" d="M 41.96875 10.207031 L 43.933594 10.386719 L 41.96875 10.371094 Z M 41.96875 10.207031 " fill-opacity="1" fill-rule="nonzero"/></g><path fill="#ffffff" d="M 40.964844 10.121094 L 40.964844 10.375 L 34.558594 10.335938 L 34.566406 9.535156 Z M 40.964844 10.121094 " fill-opacity="1" fill-rule="nonzero"/><g clip-path="url(#f10fca2d68)"><path fill="#ffffff" d="M 33.820312 11.558594 C 33.820312 10.601562 33.832031 7.378906 33.820312 7.023438 C 33.808594 6.792969 33.945312 5.75 34.769531 4.890625 C 35.480469 4.152344 36.476562 3.777344 37.734375 3.777344 C 41.496094 3.777344 41.675781 7.234375 41.675781 7.277344 L 41.675781 11.558594 C 41.789062 11.632812 41.867188 11.761719 41.867188 11.90625 C 41.867188 12.136719 41.679688 12.324219 41.449219 12.324219 C 41.21875 12.324219 41.03125 12.136719 41.03125 11.90625 C 41.03125 11.738281 41.128906 11.59375 41.273438 11.527344 L 41.273438 7.285156 C 41.269531 7.15625 41.113281 4.175781 37.730469 4.175781 C 36.589844 4.175781 35.6875 4.507812 35.054688 5.167969 C 34.390625 5.863281 34.210938 6.761719 34.21875 7.007812 C 34.234375 7.371094 34.222656 10.527344 34.222656 11.527344 C 34.363281 11.59375 34.464844 11.738281 34.464844 11.90625 C 34.464844 12.136719 34.277344 12.324219 34.046875 12.324219 C 33.816406 12.324219 33.628906 12.136719 33.628906 11.90625 C 33.628906 11.761719 33.707031 11.632812 33.820312 11.558594 Z M 33.820312 11.558594 " fill-opacity="1" fill-rule="nonzero"/></g><g clip-path="url(#17405ec5bb)"><path fill="#ffffff" d="M 28.390625 9.542969 L 28.660156 9.003906 L 28.769531 9.011719 L 31.046875 9.21875 L 33.488281 9.445312 L 33.484375 10.328125 L 30.339844 10.308594 C 24.886719 19.5 30.941406 31.492188 31.074219 31.753906 C 24.691406 22.722656 26.511719 12.632812 28.390625 9.542969 Z M 28.390625 9.542969 " fill-opacity="1" fill-rule="nonzero"/></g><g fill="#ffffff" fill-opacity="1"><g transform="translate(32.093175, 19.657573)"><g><path d="M 0.636719 0 L 1.1875 0 L 1.1875 -3.347656 L 2.636719 -1.160156 L 3.085938 -1.160156 L 4.535156 -3.339844 L 4.535156 0 L 5.082031 0 L 5.082031 -4.371094 L 4.570312 -4.371094 L 2.867188 -1.78125 L 1.148438 -4.371094 L 0.636719 -4.371094 Z M 0.636719 0 "/></g></g></g><g fill="#ffffff" fill-opacity="1"><g transform="translate(37.811439, 19.657573)"><g><path d="M 1.984375 0.0820312 C 2.714844 0.0820312 3.316406 -0.3125 3.578125 -0.941406 L 2.984375 -0.941406 C 2.785156 -0.597656 2.417969 -0.414062 1.992188 -0.414062 C 1.375 -0.414062 0.9375 -0.800781 0.855469 -1.410156 L 3.660156 -1.410156 C 3.695312 -2.542969 3.027344 -3.320312 1.992188 -3.320312 C 1.011719 -3.320312 0.324219 -2.621094 0.324219 -1.625 C 0.324219 -0.617188 1.003906 0.0820312 1.984375 0.0820312 Z M 0.863281 -1.875 C 0.957031 -2.449219 1.390625 -2.828125 1.992188 -2.828125 C 2.585938 -2.828125 3.023438 -2.464844 3.132812 -1.875 Z M 0.863281 -1.875 "/></g></g></g><g fill="#ffffff" fill-opacity="1"><g transform="translate(41.781763, 19.657573)"><g><path d="M 0.582031 0 L 1.105469 0 L 1.105469 -1.503906 C 1.105469 -2.429688 1.566406 -2.753906 2.152344 -2.753906 L 2.472656 -2.753906 L 2.472656 -3.242188 L 2.179688 -3.242188 C 1.628906 -3.242188 1.304688 -3.066406 1.074219 -2.679688 L 1.011719 -3.242188 L 0.582031 -3.242188 Z M 0.582031 0 "/></g></g></g><g fill="#ffffff" fill-opacity="1"><g transform="translate(44.503557, 19.657573)"><g><path d="M 2.042969 0.0820312 C 3.046875 0.0820312 3.757812 -0.628906 3.757812 -1.625 C 3.757812 -2.617188 3.046875 -3.320312 2.042969 -3.320312 C 1.035156 -3.320312 0.324219 -2.617188 0.324219 -1.625 C 0.324219 -0.628906 1.035156 0.0820312 2.042969 0.0820312 Z M 0.847656 -1.625 C 0.847656 -2.328125 1.34375 -2.824219 2.042969 -2.824219 C 2.742188 -2.824219 3.234375 -2.328125 3.234375 -1.625 C 3.234375 -0.910156 2.742188 -0.425781 2.042969 -0.425781 C 1.34375 -0.425781 0.847656 -0.910156 0.847656 -1.625 Z M 0.847656 -1.625 "/></g></g></g><g fill="#ffffff" fill-opacity="1"><g transform="translate(30.246709, 25.708118)"><g><path d="M 1.160156 0.0351562 C 1.746094 0.0351562 2.148438 -0.371094 2.148438 -0.957031 C 2.148438 -1.542969 1.746094 -1.949219 1.160156 -1.949219 C 0.578125 -1.949219 0.175781 -1.542969 0.175781 -0.957031 C 0.175781 -0.371094 0.578125 0.0351562 1.160156 0.0351562 Z M 0.34375 -0.957031 C 0.34375 -1.449219 0.679688 -1.78125 1.160156 -1.78125 C 1.648438 -1.78125 1.980469 -1.449219 1.980469 -0.957031 C 1.980469 -0.46875 1.648438 -0.132812 1.160156 -0.132812 C 0.679688 -0.132812 0.34375 -0.46875 0.34375 -0.957031 Z M 0.34375 -0.957031 "/></g></g></g><g fill="#ffffff" fill-opacity="1"><g transform="translate(33.489304, 25.708118)"><g><path d="M 0.308594 0 L 0.472656 0 L 0.472656 -1.628906 L 1.636719 0 L 1.792969 0 L 1.792969 -1.914062 L 1.628906 -1.914062 L 1.628906 -0.285156 L 0.464844 -1.914062 L 0.308594 -1.914062 Z M 0.308594 0 "/></g></g></g><g fill="#ffffff" fill-opacity="1"><g transform="translate(36.510438, 25.708118)"><g><path d="M 0.308594 0 L 1.445312 0 L 1.445312 -0.160156 L 0.476562 -0.160156 L 0.476562 -1.914062 L 0.308594 -1.914062 Z M 0.308594 0 "/></g></g></g><g fill="#ffffff" fill-opacity="1"><g transform="translate(38.968355, 25.708118)"><g><path d="M 0.308594 0 L 0.476562 0 L 0.476562 -1.914062 L 0.308594 -1.914062 Z M 0.308594 0 "/></g></g></g><g fill="#ffffff" fill-opacity="1"><g transform="translate(40.671673, 25.708118)"><g><path d="M 0.308594 0 L 0.472656 0 L 0.472656 -1.628906 L 1.636719 0 L 1.792969 0 L 1.792969 -1.914062 L 1.628906 -1.914062 L 1.628906 -0.285156 L 0.464844 -1.914062 L 0.308594 -1.914062 Z M 0.308594 0 "/></g></g></g><g fill="#ffffff" fill-opacity="1"><g transform="translate(43.692807, 25.708118)"><g><path d="M 0.308594 0 L 1.464844 0 L 1.464844 -0.15625 L 0.476562 -0.15625 L 0.476562 -0.898438 L 1.363281 -0.898438 L 1.363281 -1.050781 L 0.476562 -1.050781 L 0.476562 -1.757812 L 1.433594 -1.757812 L 1.433594 -1.914062 L 0.308594 -1.914062 Z M 0.308594 0 "/></g></g></g><g fill="#ffffff" fill-opacity="1"><g transform="translate(46.27649, 25.708118)"><g/></g></g><g fill="#ffffff" fill-opacity="1"><g transform="translate(47.927857, 25.708118)"><g><path d="M 0.925781 0.0351562 C 1.339844 0.0351562 1.601562 -0.167969 1.601562 -0.488281 C 1.601562 -0.761719 1.417969 -0.929688 0.933594 -1.042969 C 0.53125 -1.132812 0.386719 -1.25 0.386719 -1.441406 C 0.386719 -1.652344 0.570312 -1.789062 0.878906 -1.789062 C 1.199219 -1.789062 1.390625 -1.636719 1.40625 -1.367188 L 1.570312 -1.367188 C 1.554688 -1.734375 1.296875 -1.949219 0.878906 -1.949219 C 0.46875 -1.949219 0.222656 -1.746094 0.222656 -1.441406 C 0.222656 -1.152344 0.421875 -0.996094 0.890625 -0.886719 C 1.277344 -0.800781 1.433594 -0.683594 1.433594 -0.484375 C 1.433594 -0.261719 1.238281 -0.121094 0.925781 -0.121094 C 0.59375 -0.121094 0.371094 -0.285156 0.355469 -0.570312 L 0.191406 -0.570312 C 0.203125 -0.199219 0.488281 0.0351562 0.925781 0.0351562 Z M 0.925781 0.0351562 "/></g></g></g><g fill="#ffffff" fill-opacity="1"><g transform="translate(50.642775, 25.708118)"><g><path d="M 1.597656 0 L 1.761719 0 L 1.761719 -1.914062 L 1.597656 -1.914062 L 1.597656 -1.054688 L 0.476562 -1.054688 L 0.476562 -1.914062 L 0.308594 -1.914062 L 0.308594 0 L 0.476562 0 L 0.476562 -0.898438 L 1.597656 -0.898438 Z M 1.597656 0 "/></g></g></g><g fill="#ffffff" fill-opacity="1"><g transform="translate(53.633836, 25.708118)"><g><path d="M 1.160156 0.0351562 C 1.746094 0.0351562 2.148438 -0.371094 2.148438 -0.957031 C 2.148438 -1.542969 1.746094 -1.949219 1.160156 -1.949219 C 0.578125 -1.949219 0.175781 -1.542969 0.175781 -0.957031 C 0.175781 -0.371094 0.578125 0.0351562 1.160156 0.0351562 Z M 0.34375 -0.957031 C 0.34375 -1.449219 0.679688 -1.78125 1.160156 -1.78125 C 1.648438 -1.78125 1.980469 -1.449219 1.980469 -0.957031 C 1.980469 -0.46875 1.648438 -0.132812 1.160156 -0.132812 C 0.679688 -0.132812 0.34375 -0.46875 0.34375 -0.957031 Z M 0.34375 -0.957031 "/></g></g></g><g fill="#ffffff" fill-opacity="1"><g transform="translate(56.87643, 25.708118)"><g><path d="M 0.308594 0 L 0.476562 0 L 0.476562 -0.65625 L 0.914062 -0.65625 C 1.359375 -0.65625 1.621094 -0.886719 1.621094 -1.285156 C 1.621094 -1.679688 1.359375 -1.914062 0.914062 -1.914062 L 0.308594 -1.914062 Z M 0.476562 -0.808594 L 0.476562 -1.753906 L 0.914062 -1.753906 C 1.269531 -1.753906 1.453125 -1.59375 1.453125 -1.28125 C 1.453125 -0.96875 1.269531 -0.808594 0.914062 -0.808594 Z M 0.476562 -0.808594 "/></g></g></g><g fill="#ffffff" fill-opacity="1"><g transform="translate(59.544871, 25.708118)"><g><path d="M 0.308594 0 L 0.476562 0 L 0.476562 -0.65625 L 0.914062 -0.65625 C 1.359375 -0.65625 1.621094 -0.886719 1.621094 -1.285156 C 1.621094 -1.679688 1.359375 -1.914062 0.914062 -1.914062 L 0.308594 -1.914062 Z M 0.476562 -0.808594 L 0.476562 -1.753906 L 0.914062 -1.753906 C 1.269531 -1.753906 1.453125 -1.59375 1.453125 -1.28125 C 1.453125 -0.96875 1.269531 -0.808594 0.914062 -0.808594 Z M 0.476562 -0.808594 "/></g></g></g><g fill="#ffffff" fill-opacity="1"><g transform="translate(62.213311, 25.708118)"><g><path d="M 0.308594 0 L 0.476562 0 L 0.476562 -1.914062 L 0.308594 -1.914062 Z M 0.308594 0 "/></g></g></g><g fill="#ffffff" fill-opacity="1"><g transform="translate(63.916628, 25.708118)"><g><path d="M 0.308594 0 L 0.472656 0 L 0.472656 -1.628906 L 1.636719 0 L 1.792969 0 L 1.792969 -1.914062 L 1.628906 -1.914062 L 1.628906 -0.285156 L 0.464844 -1.914062 L 0.308594 -1.914062 Z M 0.308594 0 "/></g></g></g><g fill="#ffffff" fill-opacity="1"><g transform="translate(66.937761, 25.708118)"><g><path d="M 1.144531 0.0351562 C 1.726562 0.0351562 2.113281 -0.398438 2.109375 -1.007812 L 1.082031 -1.007812 L 1.082031 -0.847656 L 1.929688 -0.847656 C 1.894531 -0.429688 1.589844 -0.132812 1.144531 -0.132812 C 0.671875 -0.132812 0.34375 -0.46875 0.34375 -0.957031 C 0.34375 -1.445312 0.667969 -1.78125 1.144531 -1.78125 C 1.488281 -1.78125 1.75 -1.609375 1.871094 -1.324219 L 2.050781 -1.324219 C 1.925781 -1.695312 1.582031 -1.949219 1.136719 -1.949219 C 0.578125 -1.949219 0.175781 -1.535156 0.175781 -0.957031 C 0.175781 -0.378906 0.578125 0.0351562 1.144531 0.0351562 Z M 1.144531 0.0351562 "/></g></g></g></svg>