<svg xmlns="http://www.w3.org/2000/svg" width="20" height="20" viewBox="0 0 20 20">
    <g fill="none">
        <path fill="#404A92" d="M2.414 4.483L17.931 4.483 17.931 16.552 2.414 16.552z"/>
        <path fill="#4976F2" d="M5.862 16.552H0l1.034 1.724L0 20h5.172c.381 0 .69-.309.69-.69v-2.758zM14.138 16.552H20l-1.034 1.724L20 20h-5.172c-.381 0-.69-.309-.69-.69v-2.758z"/>
        <path fill="#548AFF" d="M15.517 13.793H4.483c-.381 0-.69.309-.69.69v3.448l2.07-.69h8.275l2.069.69v-3.448c0-.381-.309-.69-.69-.69z"/>
        <path fill="#BDD1F2" d="M4.828 7.931L10.345 7.931 10.345 12.069 4.828 12.069z"/>
        <path fill="#486BE0" d="M5.862 17.241h-1.38c-.38 0-.689.31-.689.69 0 .38.309.69.69.69h.69c.38 0 .69.308.69.69v-2.07zM14.138 17.241h1.38c.38 0 .689.31.689.69 0 .38-.309.69-.69.69h-.69c-.38 0-.69.308-.69.69v-2.07z"/>
        <path fill="#BDD1F2" d="M11.724 7.931L15.517 7.931 15.517 13.793 11.724 13.793z"/>
        <path fill="#FFB401" d="M1.724 3.103h2.759v1.725c0 .761-.618 1.379-1.38 1.379-.761 0-1.379-.618-1.379-1.38V3.104z"/>
        <path fill="#FFC431" d="M4.483 3.103H7.24v1.725c0 .761-.617 1.379-1.379 1.379s-1.38-.618-1.38-1.38V3.104z"/>
        <path fill="#FFB401" d="M7.241 3.103H10v1.725c0 .761-.618 1.379-1.38 1.379-.761 0-1.379-.618-1.379-1.38V3.104z"/>
        <path fill="#FFC431" d="M10 3.103h2.759v1.725c0 .761-.618 1.379-1.38 1.379-.761 0-1.379-.618-1.379-1.38V3.104z"/>
        <path fill="#FFB401" d="M12.759 3.103h2.758v1.725c0 .761-.617 1.379-1.38 1.379-.76 0-1.378-.618-1.378-1.38V3.104z"/>
        <path fill="#FFC431" d="M15.517 3.103h2.759v1.725c0 .761-.618 1.379-1.38 1.379-.761 0-1.379-.618-1.379-1.38V3.104zM4.483 3.103L5.862 0 3.103 0 1.724 3.103z"/>
        <path fill="#FFD873" d="M7.241 3.103L8.621 0 5.862 0 4.483 3.103z"/>
        <path fill="#FFC431" d="M10 3.103L11.379 0 8.621 0 7.241 3.103z"/>
        <path fill="#FFD873" d="M12.759 3.103L14.138 0 11.379 0 10 3.103z"/>
        <path fill="#FFC431" d="M15.517 3.103L16.897 0 14.138 0 12.759 3.103z"/>
        <path fill="#FFD873" d="M18.276 3.103L15.517 3.103 16.897 0z"/>
    </g>
</svg>
