<svg xmlns="http://www.w3.org/2000/svg" width="20" height="20" viewBox="0 0 20 20">
    <path fill="#404A92" d="M.72 4.999h3.57V.714C4.29.32 4.61 0 5.004 0h14.282c.394 0 .714.32.714.714v16.424c0 1.578-1.279 2.856-2.856 2.856H2.862c-1.578 0-2.856-1.278-2.856-2.856V5.713c0-.395.32-.714.714-.714zM14.287 3.57h-4.284c-.395 0-.714.32-.714.715 0 .394.32.714.714.714h4.284c.395 0 .714-.32.714-.714 0-.395-.32-.715-.714-.715zM7.861 17.138h8.569c.394 0 .714-.32.714-.714 0-.394-.32-.714-.714-.714H7.86c-.394 0-.714.32-.714.714 0 .394.32.714.715.714zm0-2.856h8.569c.394 0 .714-.32.714-.714 0-.395-.32-.714-.714-.714H7.86c-.394 0-.714.32-.714.714 0 .394.32.714.715.714zm0-2.857h8.569c.394 0 .714-.32.714-.714 0-.394-.32-.714-.714-.714H7.86c-.394 0-.714.32-.714.714 0 .395.32.714.715.714zm0-2.856h8.569c.394 0 .714-.32.714-.714 0-.394-.32-.714-.714-.714H7.86c-.394 0-.714.32-.714.714 0 .394.32.714.715.714zm-6.427 8.57c0 .788.64 1.427 1.428 1.427.789 0 1.428-.64 1.428-1.428V6.427H1.434v10.711z"/>
</svg>
