<svg xmlns="http://www.w3.org/2000/svg" width="27" height="25" viewBox="0 0 27 25">
    <g fill="none">
        <path fill="#ACD6F2" d="M14.249 14c2.588-2.26 5.216-3.231 8.695-3.231 1.17 0 1.98.047 3.056.29V1.65c0-.359-.274-.651-.611-.651H4.61C4.274 1 4 1.292 4 1.651v11.183c1.301-.514 2.664-.766 4.023-.766 2.18 0 4.35.653 6.226 1.932z"/>
        <path fill="#8EC861" d="M4 14.113v4.25c0 .351.274.637.611.637H25.39c.337 0 .611-.286.611-.636v-6.05c-1.112-.267-1.864-.314-3.056-.314-3.321 0-5.79.945-8.254 3.16-.211.191-.52.208-.75.04-2.902-2.114-6.677-2.518-9.94-1.087z"/>
        <path fill="#AAD59A" d="M14.319 15.884c.223.168.525.152.733-.04 2.379-2.214 4.763-3.8 7.948-3.84-.152-.003-.308-.004-.474-.004-3.249 0-5.662.957-8.072 3.2-.208.193-.51.208-.733.04-2.838-2.141-6.53-2.55-9.721-1.101v.835c3.177-1.196 7.652-1.101 10.319.91z"/>
        <g fill="#D3E2EC">
            <path d="M.069.58C0 .732-.005.918.05 1.094l1.137 3.532V.022L.302.348C.175.394.105.5.07.58zM5.65 16.947l10.304-3.793H3.93l1.084 3.365c.104.323.394.52.635.428z" transform="translate(1 7)"/>
        </g>
        <circle cx="11" cy="7" r="1" fill="#FFC95C"/>
        <path fill="#004463" d="M13.4 6.4h-.085c-.057-.218-.143-.422-.255-.611l.061-.062c.235-.234.235-.613 0-.848s-.614-.235-.848 0l-.062.061c-.19-.112-.393-.198-.611-.255V4.6c0-.331-.269-.6-.6-.6-.331 0-.6.269-.6.6v.085c-.218.057-.422.143-.611.255l-.062-.061c-.234-.235-.613-.235-.848 0s-.235.614 0 .848l.061.062c-.111.19-.198.393-.255.611H8.6c-.331 0-.6.269-.6.6 0 .331.269.6.6.6h.085c.057.218.143.422.255.611l-.061.062c-.235.234-.235.613 0 .848.117.117.27.176.424.176.154 0 .307-.059.424-.176l.062-.061c.19.111.393.198.611.255V9.4c0 .331.269.6.6.6.331 0 .6-.269.6-.6v-.085c.218-.057.422-.143.611-.255l.062.061c.117.117.27.176.424.176.153 0 .307-.059.424-.176.235-.235.235-.614 0-.848l-.061-.062c.111-.19.198-.393.255-.611h.085c.331 0 .6-.269.6-.6 0-.331-.269-.6-.6-.6zM11 8.2c-.662 0-1.2-.538-1.2-1.2 0-.662.538-1.2 1.2-1.2.662 0 1.2.538 1.2 1.2 0 .662-.538 1.2-1.2 1.2z"/>
        <path fill="#C3D6E4" d="M13.551 21L17 20 5 20 5.409 21z"/>
        <g fill="#004463">
            <path d="M20.864 8.13h-3.682c-.339 0-.614-.28-.614-.624 0-.345.275-.624.614-.624h3.682c.338 0 .613.28.613.624s-.275.624-.613.624zM17.795 5.633h-2.454c-.339 0-.614-.28-.614-.624 0-.345.275-.625.614-.625h2.454c.34 0 .614.28.614.625 0 .344-.275.624-.614.624z"/>
            <path d="M25.159.015H4.295c-1.015 0-1.84.84-1.84 1.872v3.898l-1.322.455c-.416.145-.754.452-.951.865-.213.445-.24.978-.074 1.461l2.346 6.849v2.703c0 .933.676 1.703 1.555 1.844l1.284 3.742c.266.783.965 1.281 1.694 1.281.175 0 .352-.028.524-.089l14.184-4.905h3.464c1.015 0 1.84-.84 1.84-1.873V1.888C27 .854 26.175.014 25.16.014zM1.266 8.155c-.058-.172-.052-.355.019-.504.038-.078.11-.183.243-.229l.926-.319v4.519L1.266 8.155zm5.849 15.56c-.252.09-.555-.105-.663-.421L5.319 19.99h12.563L7.115 23.714zm18.658-6.845v1.248c0 .344-.276.625-.614.625H4.295c-.338 0-.613-.28-.613-.625v-4.163c3.277-1.404 7.066-1.014 9.982 1.06l.01.008c.44.299.853.684 1.251 1.058.118.11.267.165.415.165.166 0 .331-.068.452-.202.23-.254.213-.649-.036-.882-.231-.216-.483-.445-.747-.669 2.283-1.819 4.626-2.617 7.695-2.617 1.196 0 1.954.046 3.069.309v4.685zm0-5.965c-1.082-.233-1.894-.278-3.069-.278-3.494 0-6.132.93-8.731 3.097-1.884-1.226-4.062-1.852-6.252-1.852-1.364 0-2.733.243-4.04.734V1.887c0-.344.276-.624.614-.624H25.16c.338 0 .614.28.614.624v9.018z"/>
        </g>
    </g>
</svg>
