<svg xmlns="http://www.w3.org/2000/svg" width="18" height="16" viewBox="0 0 18 16">
    <g fill="#7683B6">
        <path d="M8.866 4.571c-2.387 0-4.33 1.942-4.33 4.33 0 2.386 1.943 4.328 4.33 4.328s4.329-1.942 4.329-4.329c0-2.387-1.942-4.329-4.33-4.329zm0 7.273c-1.623 0-2.944-1.32-2.944-2.944 0-1.623 1.32-2.943 2.944-2.943 1.623 0 2.944 1.32 2.944 2.943 0 1.624-1.321 2.944-2.944 2.944z"/>
        <path d="M15.654 2.494h-2.548c-.081 0-.154-.045-.191-.116L12.21.897l-.006-.012C11.931.339 11.383 0 10.772 0H7.01c-.61 0-1.16.34-1.432.885L5.57.897l-.705 1.481c-.037.071-.11.116-.19.116H2.077C.932 2.494 0 3.426 0 4.57v9.351C0 15.068.932 16 2.078 16h13.576c1.145 0 2.078-.932 2.078-2.078v-9.35c0-1.146-.933-2.078-2.078-2.078zm.692 11.428c0 .382-.31.693-.692.693H2.078c-.382 0-.693-.311-.693-.693v-9.35c0-.382.311-.693.693-.693h2.597c.61 0 1.16-.34 1.432-.885l.006-.012.705-1.482c.037-.07.11-.115.19-.115h3.764c.08 0 .154.044.19.115l.706 1.482.006.012c.273.546.821.885 1.432.885h2.548c.382 0 .692.31.692.692v9.351z"/>
        <path d="M13.576 5.264H14.961V6.649H13.576z"/>
    </g>
</svg>
