<svg xmlns="http://www.w3.org/2000/svg" width="107" height="107" viewBox="0 0 107 107">
    <g fill="none">
        <path fill="#000" d="M53.5 1C24.552 1 1 24.552 1 53.5S24.552 106 53.5 106 106 82.448 106 53.5 82.448 1 53.5 1zM40.375 79.75v-52.5L79.75 53.5 40.375 79.75z" opacity=".671"/>
        <path fill="#FFF" d="M53.5.5c29.271 0 53 23.729 53 53s-23.729 53-53 53-53-23.729-53-53 23.729-53 53-53zm0 1c-28.719 0-52 23.281-52 52s23.281 52 52 52 52-23.281 52-52-23.281-52-52-52zM40.5 27L80 53.5l-39.5 26V27z"/>
    </g>
</svg>
