<svg xmlns="http://www.w3.org/2000/svg" width="16" height="16" viewBox="0 0 16 16">
    <path fill="#7683B6" d="M13.54 2.32c-3.094-3.093-8.127-3.093-11.22 0-3.094 3.093-3.093 8.126 0 11.22 3.093 3.093 8.126 3.093 11.22 0 3.093-3.094 3.092-8.127 0-11.22zm-.866 10.354c-2.616 2.616-6.873 2.616-9.489 0-2.616-2.616-2.616-6.873 0-9.489 2.616-2.616 6.873-2.616 9.49 0 2.615 2.616 2.615 6.873-.001 9.49zM4.97 5.783c0-.512.416-.928.928-.928s.927.415.927.928c0 .512-.415.927-.927.927s-.928-.415-.928-.927zm4.205 0c0-.512.415-.928.927-.928s.928.415.928.928c0 .512-.416.927-.928.927s-.927-.415-.927-.927zm2.192 3.797c-.575 1.33-1.92 2.188-3.428 2.188-1.54 0-2.894-.863-3.45-2.199-.094-.228.014-.491.243-.586.056-.023.115-.034.172-.034.176 0 .343.104.414.276.416 1 1.444 1.646 2.62 1.646 1.15 0 2.173-.646 2.606-1.647.098-.227.362-.332.59-.233.227.098.331.362.233.59z"/>
</svg>
