<svg xmlns="http://www.w3.org/2000/svg" width="16" height="16" viewBox="0 0 16 16">
  <path id="Icon_awesome-thumbs-up" data-name="Icon awesome-thumbs-up" d="M3.25,9H.75A.75.75,0,0,1,0,8.25V.75A.75.75,0,0,1,.75,0h2.5A.75.75,0,0,1,4,.75v7.5A.75.75,0,0,1,3.25,9ZM2,1.25A.75.75,0,1,0,2.75,2,.75.75,0,0,0,2,1.25Zm10,12.2c0-1.325-.812-2.069-1.04-2.955h3.179A1.867,1.867,0,0,0,16,8.684a2.263,2.263,0,0,0-.607-1.537l0,0A2.61,2.61,0,0,0,15.1,4.66a2.471,2.471,0,0,0-.512-2.336A1.659,1.659,0,0,0,14.394.929C13.756.013,12.176,0,10.839,0H10.75A8.971,8.971,0,0,0,7.014.991,4.918,4.918,0,0,1,5.368,1.5.375.375,0,0,0,5,1.872v6.68a.375.375,0,0,0,.111.266c1.238,1.223,1.77,2.518,2.785,3.535a3.785,3.785,0,0,1,.794,1.841c.139.578.43,1.806,1.06,1.806C10.5,16,12,15.75,12,13.455Z" fill="#a0c4cf"/>
</svg>
