<svg xmlns="http://www.w3.org/2000/svg" width="10" height="11.429" viewBox="0 0 10 11.429">
  <path id="Icon_awesome-trash" data-name="Icon awesome-trash" d="M9.643.714H6.964L6.754.3a.536.536,0,0,0-.48-.3H3.723a.529.529,0,0,0-.478.3l-.21.417H.357A.357.357,0,0,0,0,1.071v.714a.357.357,0,0,0,.357.357H9.643A.357.357,0,0,0,10,1.786V1.071A.357.357,0,0,0,9.643.714Zm-8.455,9.71a1.071,1.071,0,0,0,1.069,1H7.743a1.071,1.071,0,0,0,1.069-1l.473-7.567H.714Z" transform="translate(0 0)" fill="#328ba7"/>
</svg>
